<svg width="393" height="852" viewBox="0 0 393 852" fill="none" xmlns="http://www.w3.org/2000/svg">
<g clip-path="url(#clip0_814_405)">
<rect width="393" height="852" fill="#F9F9FA"/>
<path fill-rule="evenodd" clip-rule="evenodd" d="M428.463 15.5695C457.639 12.9692 489.217 11.5746 513.227 28.3917C537.404 45.3253 545.101 76.2709 554.925 104.146C565.027 132.808 583.275 163.983 570.776 191.679C558.339 219.238 520.85 221.536 494.946 237.05C472.222 250.659 454.869 278.773 428.463 276.912C402.125 275.055 390.533 242.63 368.444 228.132C344.53 212.437 308.295 214.049 294.471 188.97C280.336 163.327 288.654 130.521 299.684 103.391C310.183 77.5676 330.985 58.2702 353.986 42.5842C376.362 27.325 401.506 17.9721 428.463 15.5695Z" fill="#7100FE"/>
<path fill-rule="evenodd" clip-rule="evenodd" d="M0.581123 90.0238C27.0907 91.0201 36.0291 127.133 57.353 142.885C78.3674 158.409 112.027 157.598 123.678 180.959C135.496 204.653 129.743 236.092 114.718 257.901C100.812 278.087 68.0611 272.107 49.6916 288.354C27.692 307.812 29.0464 351.537 0.581123 358.852C-26.5131 365.815 -51.8694 339.66 -71.1288 319.403C-88.0701 301.585 -95.696 277.642 -99.6796 253.4C-103.174 232.135 -99.4 211.109 -92.2671 190.769C-85.2862 170.864 -73.6887 154.02 -59.3839 138.498C-41.5332 119.129 -25.7665 89.0337 0.581123 90.0238Z" fill="#7100FE"/>
<path fill-rule="evenodd" clip-rule="evenodd" d="M360.339 396.033C384.146 389.559 404.406 415.038 424.09 429.888C443.368 444.432 470.886 456.927 472.908 480.962C474.969 505.461 441.966 518.109 433.452 541.179C425.521 562.672 444.861 594.621 426.098 607.806C407.236 621.061 382.409 599.256 360.339 592.558C345.48 588.047 330.661 584.602 318.38 575.112C306.41 565.862 296.954 553.906 291.893 539.666C286.728 525.13 285.077 509.276 289.762 494.579C294.465 479.826 308.637 471.429 317.658 458.833C332.766 437.739 335.274 402.85 360.339 396.033Z" fill="#FFAC01"/>
<path fill-rule="evenodd" clip-rule="evenodd" d="M16.9834 549.306C41.3859 543.976 71.8064 536.483 89.9552 553.64C108.39 571.067 94.8348 602.319 99.4466 627.261C103.193 647.52 118.236 665.444 114.37 685.68C110.276 707.109 93.8775 723.114 78.2294 738.32C60.0326 756.002 41.7346 785.91 16.9834 780.313C-9.39001 774.349 -4.54099 729.623 -26.9731 714.53C-51.0246 698.347 -92.927 718.883 -109.577 695.157C-125.052 673.105 -109.534 640.331 -94.9259 617.696C-82.0789 597.791 -56.2138 593.504 -35.9961 581.149C-17.974 570.135 -3.65262 553.813 16.9834 549.306Z" fill="#FFAC01"/>
<path fill-rule="evenodd" clip-rule="evenodd" d="M372.573 738.01C390.021 741.468 407.307 736.588 424.54 740.998C451.696 747.946 490.488 744.816 500.957 770.858C511.189 796.313 480.419 819.872 465.496 842.884C454.578 859.719 441.813 873.968 426.05 886.368C409.629 899.285 393.444 915.371 372.573 915.983C351.493 916.602 335.156 899.921 316.771 889.574C295.319 877.5 259.74 874.9 256.235 850.504C252.527 824.692 293.797 814.416 302.439 789.816C310.691 766.325 283.147 731.72 303.156 716.94C323.103 702.206 348.26 733.191 372.573 738.01Z" fill="#7100FE"/>
</g>
<defs>
<clipPath id="clip0_814_405">
<rect width="393" height="852" fill="white"/>
</clipPath>
</defs>
</svg>
